<svg id="Lager_1" data-name="Lager 1" xmlns="http://www.w3.org/2000/svg" viewBox="0 0 226.76 245.52"><defs><style>.cls-1{fill:#fff;stroke:#1e1e1c;stroke-miterlimit:10;stroke-width:3px;}.cls-2{fill:#1d1d1b;}</style></defs><title>Fighting_white</title><ellipse class="cls-1" cx="113.38" cy="122.76" rx="111.88" ry="121.26"/><path class="cls-2" d="M359.13,332.49q.21-.3-1.93,5.52H345.3l-3.39,9.59h-6.47l8.38-23.73h18.35l-1.93,5.58h-12l-1.07,3Z" transform="translate(-308.02 -175.5)"/><path class="cls-2" d="M371,323.88l-8.37,23.73h-6.47l8.37-23.73Z" transform="translate(-308.02 -175.5)"/><path class="cls-2" d="M397.38,323.94l-2,5.58H380.81a2.31,2.31,0,0,0-2.41,1.29q-.53,1.29-2,5.32a43.31,43.31,0,0,0-1.6,5q0,1,1.48,1h6.77a2.26,2.26,0,0,0,2.41-1.34,9.51,9.51,0,0,0,.59-1.37h-7.36l2-5.58H394.5l-4,11.22a4.59,4.59,0,0,1-1.22,2,3.38,3.38,0,0,1-2.2.65H371.52a4.88,4.88,0,0,1-2.79-.74,2.85,2.85,0,0,1-1.28-2.52,5.46,5.46,0,0,1,.36-1.78q2.2-6.5,5.58-16a4.74,4.74,0,0,1,1.19-2,3.28,3.28,0,0,1,2.2-.68Z" transform="translate(-308.02 -175.5)"/><path class="cls-2" d="M425.65,323.88l-8.43,23.73h-6.47l3.42-9.59H402.25l-3.39,9.59h-6.47l8.4-23.73h6.5l-3,8.64h11.85l3.06-8.64Z" transform="translate(-308.02 -175.5)"/><path class="cls-2" d="M435.36,347.57h-6.47l6.38-18.08h-9.74l2-5.64h25.63l-2,5.64h-9.44l-6.38,18.08Z" transform="translate(-308.02 -175.5)"/><path class="cls-2" d="M461.79,323.88l-8.37,23.73H447l8.37-23.73Z" transform="translate(-308.02 -175.5)"/><path class="cls-2" d="M488.28,330.2l-6.18,17.4h-6.38l5.64-16.24a1.59,1.59,0,0,0,.12-.59q0-1.25-1.07-1.25h-8.58a2.36,2.36,0,0,0-2.37,1.78l-5.64,16.3h-6.47l8.25-23.67h19.8q3.56,0,3.56,3.06A10,10,0,0,1,488.28,330.2Z" transform="translate(-308.02 -175.5)"/><path class="cls-2" d="M515,323.94l-2,5.58H498.44a2.31,2.31,0,0,0-2.41,1.29q-.53,1.29-2,5.32a43.31,43.31,0,0,0-1.6,5q0,1,1.48,1h6.77a2.26,2.26,0,0,0,2.41-1.34,9.58,9.58,0,0,0,.59-1.37h-7.37l2-5.58h13.81l-4,11.22a4.58,4.58,0,0,1-1.22,2,3.37,3.37,0,0,1-2.2.65H489.14a4.88,4.88,0,0,1-2.79-.74,2.85,2.85,0,0,1-1.28-2.52,5.46,5.46,0,0,1,.36-1.78q2.2-6.5,5.58-16a4.75,4.75,0,0,1,1.19-2,3.28,3.28,0,0,1,2.2-.68Z" transform="translate(-308.02 -175.5)"/><path class="cls-2" d="M378.33,383.07h-6.47L378.24,365H368.5l2-5.64h25.63l-2,5.64h-9.44l-6.38,18.08Z" transform="translate(-308.02 -175.5)"/><path class="cls-2" d="M421.48,365.39l-3.09,8.71H399.68l-.5,1.53a2.89,2.89,0,0,0-.21,1q0,.93,1.19.93h17l-2,5.58h-18.3q-5.23,0-5.23-3.27a9.83,9.83,0,0,1,.65-2.82l5.43-15.74q.65-1.84,3.18-1.84h17.43q3.74,0,3.74,3.08A9.16,9.16,0,0,1,421.48,365.39Zm-6.92,1.16a1.18,1.18,0,0,0,.06-.38q0-1.15-1.46-1.15h-8.31a5.42,5.42,0,0,0-1.51.15,1.33,1.33,0,0,0-.83.88l-.8,2.47h12.2Z" transform="translate(-308.02 -175.5)"/><path class="cls-2" d="M439.27,383.1H422.4a4.78,4.78,0,0,1-2.92-.85,2.83,2.83,0,0,1-1.14-2.42,5.53,5.53,0,0,1,.33-1.78l5.58-16a3.41,3.41,0,0,1,3.39-2.64h20l-2,5.58h-14q-2,0-2.41,1.34.09-.33-3.53,10a1,1,0,0,0,0,.24q0,.92,1.49.92h14.08Z" transform="translate(-308.02 -175.5)"/><path class="cls-2" d="M474.31,359.38l-8.43,23.73H459.4l3.41-9.59h-11.9l-3.39,9.59H441l8.4-23.73H456L453,368h11.85l3.06-8.64Z" transform="translate(-308.02 -175.5)"/><path class="cls-2" d="M401.44,263.59c2.94-5.46,15.61-15.83,27.18-13s21.27,15.21,24.18,27c4,16.1-17.74,30-31.8,30.22-22,.31-33.12-15.45-39.26-27.62-4.91-9.73,2-19,2-19a17.44,17.44,0,0,0,12.68,6.91l-.29,1.38c-11.53.23-9.4,6.29-9.4,6.29l4.68-3.13c-2.67,2.41-1.89,8.16-1.89,8.16S398.5,269,401.44,263.59Z" transform="translate(-308.02 -175.5)"/><path class="cls-2" d="M403.56,233.91c1.08,2.66,2,15.51,2,16.86s.71,1.68.71,1.68c.62-2.72,12.88-8.05,21.39-5.87s19.14,14.52,19.14,14.52a30,30,0,0,1,2-4.1c1.64-3.08,4.2-11.25,4.2-11.25l-1.4-1.3a11.12,11.12,0,0,0,4.38-1.09c2-1.07,9.9-15.78,9.81-19.81S436,205.14,430.18,204.23s-12.74,7.34-14.69,11.77-2.19,10.2,5.66,14.12,25.61,12.42,25.61,12.42l-.34,1c-37-10.87-35.23-20-35.23-20l-1.68,1s-3.38-.25-15.53,1.32-15.64,16.21-13.77,25.3,14.63,15.11,18.47,10.84c5.73-6.36,4.43-15.85,4-21.27a11.91,11.91,0,0,0-4.18-8.19C400.16,230.88,402.48,231.25,403.56,233.91Z" transform="translate(-308.02 -175.5)"/></svg>