<?xml version="1.0" encoding="utf-8"?>
<!-- Generator: Adobe Illustrator 20.0.0, SVG Export Plug-In . SVG Version: 6.00 Build 0)  -->
<svg version="1.1" id="Lager_1" xmlns="http://www.w3.org/2000/svg" xmlns:xlink="http://www.w3.org/1999/xlink" x="0px" y="0px"
	 viewBox="0 0 841.9 595.3" style="enable-background:new 0 0 841.9 595.3;" xml:space="preserve">
<style type="text/css">
	.st0{fill:#000000;stroke:#FFFFFF;stroke-width:2;stroke-miterlimit:10;}<!--#1E1E1C-->
	.st1{fill:#FFFFFF;}
</style>
<ellipse class="st0" cx="421.4" cy="298.3" rx="111.9" ry="121.3"/>
<path class="st1" d="M359.1,332.5c0.1-0.2-0.5,1.6-1.9,5.5h-11.9l-3.4,9.6h-6.5l8.4-23.7h18.3l-1.9,5.6h-12l-1.1,3L359.1,332.5z"/>
<path class="st1" d="M371,323.9l-8.4,23.7h-6.5l8.4-23.7H371z"/>
<path class="st1" d="M397.4,323.9l-2,5.6h-14.6c-1-0.1-2,0.4-2.4,1.3c-0.4,0.9-1,2.6-2,5.3c-0.6,1.6-1.2,3.3-1.6,5
	c0,0.6,0.5,1,1.5,1h6.8c1,0.2,2-0.4,2.4-1.3c0.2-0.4,0.4-0.9,0.6-1.4h-7.4l2-5.6h13.8l-4,11.2c-0.2,0.8-0.6,1.5-1.2,2
	c-0.6,0.5-1.4,0.7-2.2,0.6h-15.6c-1,0-2-0.2-2.8-0.7c-0.8-0.6-1.3-1.5-1.3-2.5c0-0.6,0.1-1.2,0.4-1.8c1.5-4.3,3.3-9.7,5.6-16
	c0.2-0.8,0.6-1.4,1.2-2c0.6-0.5,1.4-0.7,2.2-0.7L397.4,323.9z"/>
<path class="st1" d="M425.7,323.9l-8.4,23.7h-6.5l3.4-9.6h-11.9l-3.4,9.6h-6.5l8.4-23.7h6.5l-3,8.6h11.8l3.1-8.6H425.7z"/>
<path class="st1" d="M435.4,347.6h-6.5l6.4-18.1h-9.7l2-5.6h25.6l-2,5.6h-9.4L435.4,347.6L435.4,347.6z"/>
<path class="st1" d="M461.8,323.9l-8.4,23.7H447l8.4-23.7H461.8z"/>
<path class="st1" d="M488.3,330.2l-6.2,17.4h-6.4l5.6-16.2c0.1-0.2,0.1-0.4,0.1-0.6c0-0.8-0.4-1.2-1.1-1.2h-8.6
	c-1.1,0-2.1,0.7-2.4,1.8l-5.6,16.3h-6.5l8.2-23.7h19.8c2.4,0,3.6,1,3.6,3.1C488.9,328.1,488.7,329.2,488.3,330.2z"/>
<path class="st1" d="M515,323.9l-2,5.6h-14.6c-1-0.1-2,0.4-2.4,1.3c-0.4,0.9-1,2.6-2,5.3c-0.6,1.6-1.2,3.3-1.6,5c0,0.6,0.5,1,1.5,1
	h6.8c1,0.2,2-0.4,2.4-1.3c0.2-0.4,0.4-0.9,0.6-1.4h-7.4l2-5.6h13.8l-4,11.2c-0.2,0.8-0.6,1.5-1.2,2c-0.6,0.5-1.4,0.7-2.2,0.6h-15.6
	c-1,0-2-0.2-2.8-0.7c-0.8-0.6-1.3-1.5-1.3-2.5c0-0.6,0.1-1.2,0.4-1.8c1.5-4.3,3.3-9.7,5.6-16c0.2-0.8,0.6-1.4,1.2-2
	c0.6-0.5,1.4-0.7,2.2-0.7L515,323.9z"/>
<path class="st1" d="M378.3,383.1h-6.5l6.4-18.1h-9.7l2-5.6h25.6l-2,5.6h-9.4L378.3,383.1L378.3,383.1z"/>
<path class="st1" d="M421.5,365.4l-3.1,8.7h-18.7l-0.5,1.5c-0.1,0.3-0.2,0.7-0.2,1c0,0.6,0.4,0.9,1.2,0.9h17l-2,5.6h-18.3
	c-3.5,0-5.2-1.1-5.2-3.3c0.1-1,0.3-1.9,0.7-2.8l5.4-15.7c0.4-1.2,1.5-1.8,3.2-1.8h17.4c2.5,0,3.7,1,3.7,3.1
	C422,363.5,421.8,364.5,421.5,365.4z M414.6,366.6c0-0.1,0.1-0.3,0.1-0.4c0-0.8-0.5-1.1-1.5-1.1h-8.3c-0.5,0-1,0-1.5,0.1
	c-0.4,0.1-0.7,0.5-0.8,0.9l-0.8,2.5h12.2L414.6,366.6z"/>
<path class="st1" d="M439.3,383.1h-16.9c-1,0-2.1-0.3-2.9-0.9c-0.8-0.6-1.2-1.5-1.1-2.4c0-0.6,0.1-1.2,0.3-1.8l5.6-16
	c0.4-1.6,1.8-2.7,3.4-2.6h20l-2,5.6h-14c-1.3,0-2.1,0.4-2.4,1.3c0.1-0.2-1.1,3.1-3.5,10c0,0.1,0,0.2,0,0.2c0,0.6,0.5,0.9,1.5,0.9
	h14.1L439.3,383.1z"/>
<path class="st1" d="M474.3,359.4l-8.4,23.7h-6.5l3.4-9.6h-11.9l-3.4,9.6H441l8.4-23.7h6.6l-3,8.6h11.8l3.1-8.6L474.3,359.4z"/>
<path class="st1" d="M401.4,263.6c2.9-5.5,15.6-15.8,27.2-13c11.6,2.8,21.3,15.2,24.2,27c4,16.1-17.7,30-31.8,30.2
	c-22,0.3-33.1-15.5-39.3-27.6c-4.9-9.7,2-19,2-19c3,4,7.7,6.5,12.7,6.9l-0.3,1.4c-11.5,0.2-9.4,6.3-9.4,6.3l4.7-3.1
	c-2.7,2.4-1.9,8.2-1.9,8.2S398.5,269,401.4,263.6z"/>
<path class="st1" d="M403.6,233.9c1.1,2.7,2,15.5,2,16.9c0,1.4,0.7,1.7,0.7,1.7c0.6-2.7,12.9-8.1,21.4-5.9s19.1,14.5,19.1,14.5
	c0.5-1.4,1.2-2.8,2-4.1c1.6-3.1,4.2-11.2,4.2-11.2l-1.4-1.3c1.5-0.1,3-0.4,4.4-1.1c2-1.1,9.9-15.8,9.8-19.8
	c-0.1-4-29.8-18.4-35.6-19.3s-12.7,7.3-14.7,11.8s-2.2,10.2,5.7,14.1c7.9,3.9,25.6,12.4,25.6,12.4l-0.3,1c-37-10.9-35.2-20-35.2-20
	l-1.7,1c0,0-3.4-0.3-15.5,1.3c-12.2,1.6-15.6,16.2-13.8,25.3c1.9,9.1,14.6,15.1,18.5,10.8c5.7-6.4,4.4-15.9,4-21.3
	c-0.2-3.2-1.7-6.1-4.2-8.2C400.2,230.9,402.5,231.3,403.6,233.9z"/>
</svg>
